{
  "accessors": [
    {
      "bufferView": 2,
      "componentType": 5126,
      "count": 9631,
      "max": [
        665.3696899414063,
        589.8973999023438,
        98.2839126586914
      ],
      "min": [
        -600.905029296875,
        -572.0833740234375,
        -3262.9169921875
      ],
      "type": "VEC3"
    },
    {
      "bufferView": 2,
      "byteOffset": 115572,
      "componentType": 5126,
      "count": 9631,
      "type": "VEC3"
    },
    {
      "bufferView": 1,
      "componentType": 5126,
      "count": 9631,
      "type": "VEC2"
    },
    {
      "bufferView": 0,
      "componentType": 5125,
      "count": 29826,
      "type": "SCALAR"
    },
    {
      "bufferView": 2,
      "byteOffset": 231144,
      "componentType": 5126,
      "count": 23050,
      "max": [
        805.21240234375,
        715.08642578125,
        -399.99151611328125
      ],
      "min": [
        -690.3016357421875,
        -707.8400268554688,
        -3305.938232421875
      ],
      "type": "VEC3"
    },
    {
      "bufferView": 2,
      "byteOffset": 507744,
      "componentType": 5126,
      "count": 23050,
      "type": "VEC3"
    },
    {
      "bufferView": 1,
      "byteOffset": 77048,
      "componentType": 5126,
      "count": 23050,
      "type": "VEC2"
    },
    {
      "bufferView": 0,
      "byteOffset": 119304,
      "componentType": 5125,
      "count": 88512,
      "type": "SCALAR"
    }
  ],
  "asset": {
    "generator": "fab-model-conversion",
    "version": "2.0"
  },
  "bufferViews": [
    {
      "buffer": 0,
      "byteLength": 473352,
      "target": 34963
    },
    {
      "buffer": 0,
      "byteLength": 261448,
      "byteOffset": 473352,
      "byteStride": 8,
      "target": 34962
    },
    {
      "buffer": 0,
      "byteLength": 784344,
      "byteOffset": 734800,
      "byteStride": 12,
      "target": 34962
    }
  ],
  "buffers": [
    {
      "byteLength": 1519144,
      "uri": "scene.bin"
    }
  ],
  "extensionsUsed": [
    "KHR_materials_specular"
  ],
  "materials": [
    {
      "doubleSided": true,
      "name": "Paint_cel_shader_EEVEE_only",
      "pbrMetallicRoughness": {
        "metallicFactor": 0.0,
        "roughnessFactor": 0.9
      }
    },
    {
      "doubleSided": true,
      "extensions": {
        "KHR_materials_specular": {
          "specularFactor": 0
        }
      },
      "name": "Paint_Cel_Shader_EEVEE_only",
      "pbrMetallicRoughness": {
        "metallicFactor": 0.0
      }
    }
  ],
  "meshes": [
    {
      "name": "Object_0",
      "primitives": [
        {
          "attributes": {
            "NORMAL": 1,
            "POSITION": 0,
            "TEXCOORD_0": 2
          },
          "indices": 3,
          "material": 0,
          "mode": 4
        }
      ]
    },
    {
      "name": "Object_1",
      "primitives": [
        {
          "attributes": {
            "NORMAL": 5,
            "POSITION": 4,
            "TEXCOORD_0": 6
          },
          "indices": 7,
          "material": 1,
          "mode": 4
        }
      ]
    }
  ],
  "nodes": [
    {
      "children": [
        1
      ],
      "matrix": [
        1.0,
        0.0,
        0.0,
        0.0,
        0.0,
        2.220446049250313e-16,
        -1.0,
        0.0,
        0.0,
        1.0,
        2.220446049250313e-16,
        0.0,
        0.0,
        0.0,
        0.0,
        1.0
      ],
      "name": "Sketchfab_model"
    },
    {
      "children": [
        2
      ],
      "name": "root"
    },
    {
      "children": [
        3
      ],
      "matrix": [
        1.0,
        0.0,
        0.0,
        0.0,
        0.0,
        2.220446049250313e-16,
        1.0,
        0.0,
        0.0,
        -1.0,
        2.220446049250313e-16,
        0.0,
        0.0,
        0.0,
        0.0,
        1.0
      ],
      "name": "GLTF_SceneRootNode"
    },
    {
      "children": [
        4,
        5
      ],
      "matrix": [
        0.010227140039205551,
        0.0,
        0.0,
        0.0,
        0.0,
        0.0,
        0.010227140039205551,
        0.0,
        0.0,
        -0.010227140039205551,
        0.0,
        0.0,
        0.0,
        0.0,
        0.0,
        1.0
      ],
      "name": "Redwood_Tree_0"
    },
    {
      "mesh": 0,
      "name": "Object_4"
    },
    {
      "mesh": 1,
      "name": "Object_5"
    }
  ],
  "scene": 0,
  "scenes": [
    {
      "name": "Sketchfab_Scene",
      "nodes": [
        0
      ]
    }
  ]
}
