{
  "accessors": [
    {
      "bufferView": 2,
      "componentType": 5126,
      "count": 19338,
      "max": [
        3.994997978210449,
        2.1173877716064453,
        2.9792351722717285
      ],
      "min": [
        -3.7366576194763184,
        -1.455106496810913,
        -2.8251101970672607
      ],
      "type": "VEC3"
    },
    {
      "bufferView": 2,
      "byteOffset": 232056,
      "componentType": 5126,
      "count": 19338,
      "max": [
        1.0,
        1.0,
        1.0
      ],
      "min": [
        -1.0,
        -1.0,
        -1.0
      ],
      "type": "VEC3"
    },
    {
      "bufferView": 3,
      "componentType": 5126,
      "count": 19338,
      "max": [
        1.0,
        0.9999983310699463,
        1.0,
        1.0
      ],
      "min": [
        -1.0,
        -0.9998525381088257,
        -1.0,
        -1.0
      ],
      "type": "VEC4"
    },
    {
      "bufferView": 1,
      "componentType": 5126,
      "count": 19338,
      "max": [
        0.9960806965827942,
        1.0
      ],
      "min": [
        0.0,
        0.0
      ],
      "type": "VEC2"
    },
    {
      "bufferView": 0,
      "componentType": 5125,
      "count": 90312,
      "type": "SCALAR"
    },
    {
      "bufferView": 2,
      "byteOffset": 464112,
      "componentType": 5126,
      "count": 6185,
      "max": [
        4.0262627601623535,
        2.209468364715576,
        3.044799566268921
      ],
      "min": [
        -3.5798048973083496,
        -1.9881014823913574,
        -2.8595330715179443
      ],
      "type": "VEC3"
    },
    {
      "bufferView": 2,
      "byteOffset": 538332,
      "componentType": 5126,
      "count": 6185,
      "max": [
        1.0,
        1.0,
        1.0
      ],
      "min": [
        -1.0,
        -1.0,
        -1.0
      ],
      "type": "VEC3"
    },
    {
      "bufferView": 3,
      "byteOffset": 309408,
      "componentType": 5126,
      "count": 6185,
      "max": [
        0.9999957084655762,
        1.0,
        1.0,
        1.0
      ],
      "min": [
        -0.9999957084655762,
        -1.0,
        -1.0,
        -1.0
      ],
      "type": "VEC4"
    },
    {
      "bufferView": 1,
      "byteOffset": 154704,
      "componentType": 5126,
      "count": 6185,
      "max": [
        0.9828817844390869,
        1.0
      ],
      "min": [
        5.551115123125783e-17,
        0.0
      ],
      "type": "VEC2"
    },
    {
      "bufferView": 0,
      "byteOffset": 361248,
      "componentType": 5125,
      "count": 24132,
      "type": "SCALAR"
    },
    {
      "bufferView": 2,
      "byteOffset": 612552,
      "componentType": 5126,
      "count": 4523,
      "max": [
        3.531388282775879,
        3.3700509071350098,
        2.0942468643188477
      ],
      "min": [
        -8.602662086486816,
        0.3797372579574585,
        -1.97660231590271
      ],
      "type": "VEC3"
    },
    {
      "bufferView": 2,
      "byteOffset": 666828,
      "componentType": 5126,
      "count": 4523,
      "max": [
        1.0,
        1.0,
        1.0
      ],
      "min": [
        -1.0,
        -1.0,
        -1.0
      ],
      "type": "VEC3"
    },
    {
      "bufferView": 3,
      "byteOffset": 408368,
      "componentType": 5126,
      "count": 4523,
      "max": [
        1.0,
        1.0,
        1.0,
        1.0
      ],
      "min": [
        -1.0,
        -1.0,
        -0.9999999403953552,
        1.0
      ],
      "type": "VEC4"
    },
    {
      "bufferView": 1,
      "byteOffset": 204184,
      "componentType": 5126,
      "count": 4523,
      "max": [
        0.9737417697906494,
        1.0
      ],
      "min": [
        0.0,
        0.0
      ],
      "type": "VEC2"
    },
    {
      "bufferView": 0,
      "byteOffset": 457776,
      "componentType": 5125,
      "count": 22539,
      "type": "SCALAR"
    },
    {
      "bufferView": 2,
      "byteOffset": 721104,
      "componentType": 5126,
      "count": 4,
      "max": [
        15.63044261932373,
        -1.989042043685913,
        15.63044261932373
      ],
      "min": [
        -15.63044261932373,
        -1.989042043685913,
        -15.63044261932373
      ],
      "type": "VEC3"
    },
    {
      "bufferView": 2,
      "byteOffset": 721152,
      "componentType": 5126,
      "count": 4,
      "max": [
        0.0,
        1.0,
        0.0
      ],
      "min": [
        0.0,
        1.0,
        0.0
      ],
      "type": "VEC3"
    },
    {
      "bufferView": 3,
      "byteOffset": 480736,
      "componentType": 5126,
      "count": 4,
      "max": [
        -3.981315967394039e-05,
        0.0,
        -1.0,
        1.0
      ],
      "min": [
        -3.984366776421666e-05,
        0.0,
        -1.0,
        1.0
      ],
      "type": "VEC4"
    },
    {
      "bufferView": 1,
      "byteOffset": 240368,
      "componentType": 5126,
      "count": 4,
      "max": [
        1.0,
        1.0
      ],
      "min": [
        0.0,
        0.0
      ],
      "type": "VEC2"
    },
    {
      "bufferView": 0,
      "byteOffset": 547932,
      "componentType": 5125,
      "count": 6,
      "type": "SCALAR"
    }
  ],
  "asset": {
    "extras": {
      "author": "Kingy (https://sketchfab.com/kingy)",
      "license": "CC-BY-4.0 (http://creativecommons.org/licenses/by/4.0/)",
      "source": "https://sketchfab.com/3d-models/naval-cannon-18th-century-english-style-d93798b2ee5d443fbc37ea9d46c38b23",
      "title": "Naval Cannon - 18th Century English Style"
    },
    "generator": "Sketchfab-12.68.0",
    "version": "2.0"
  },
  "bufferViews": [
    {
      "buffer": 0,
      "byteLength": 547956,
      "name": "floatBufferViews",
      "target": 34963
    },
    {
      "buffer": 0,
      "byteLength": 240400,
      "byteOffset": 547956,
      "byteStride": 8,
      "name": "floatBufferViews",
      "target": 34962
    },
    {
      "buffer": 0,
      "byteLength": 721200,
      "byteOffset": 788356,
      "byteStride": 12,
      "name": "floatBufferViews",
      "target": 34962
    },
    {
      "buffer": 0,
      "byteLength": 480800,
      "byteOffset": 1509556,
      "byteStride": 16,
      "name": "floatBufferViews",
      "target": 34962
    }
  ],
  "buffers": [
    {
      "byteLength": 1990356,
      "uri": "scene.bin"
    }
  ],
  "images": [
    {
      "uri": "textures/knobs_m_baseColor.png"
    },
    {
      "uri": "textures/knobs_m_metallicRoughness.png"
    },
    {
      "uri": "textures/knobs_m_normal.png"
    },
    {
      "uri": "textures/body_m_baseColor.png"
    },
    {
      "uri": "textures/body_m_metallicRoughness.png"
    },
    {
      "uri": "textures/body_m_normal.png"
    },
    {
      "uri": "textures/cannon_m_baseColor.png"
    },
    {
      "uri": "textures/cannon_m_metallicRoughness.png"
    },
    {
      "uri": "textures/cannon_m_normal.png"
    },
    {
      "uri": "textures/lambert1_baseColor.png"
    },
    {
      "uri": "textures/lambert1_metallicRoughness.png"
    },
    {
      "uri": "textures/lambert1_normal.png"
    }
  ],
  "materials": [
    {
      "doubleSided": true,
      "name": "knobs_m",
      "normalTexture": {
        "index": 2
      },
      "occlusionTexture": {
        "index": 1
      },
      "pbrMetallicRoughness": {
        "baseColorTexture": {
          "index": 0
        },
        "metallicRoughnessTexture": {
          "index": 1
        }
      }
    },
    {
      "doubleSided": true,
      "name": "body_m",
      "normalTexture": {
        "index": 5
      },
      "occlusionTexture": {
        "index": 4
      },
      "pbrMetallicRoughness": {
        "baseColorTexture": {
          "index": 3
        },
        "metallicRoughnessTexture": {
          "index": 4
        }
      }
    },
    {
      "doubleSided": true,
      "name": "cannon_m",
      "normalTexture": {
        "index": 8
      },
      "occlusionTexture": {
        "index": 7
      },
      "pbrMetallicRoughness": {
        "baseColorTexture": {
          "index": 6
        },
        "metallicRoughnessTexture": {
          "index": 7
        }
      }
    },
    {
      "alphaMode": "BLEND",
      "name": "lambert1",
      "normalTexture": {
        "index": 11,
        "scale": 0.5261051829268293
      },
      "pbrMetallicRoughness": {
        "baseColorTexture": {
          "index": 9
        },
        "metallicRoughnessTexture": {
          "index": 10
        }
      }
    }
  ],
  "meshes": [
    {
      "name": "chain3_low2_knobs_m_0",
      "primitives": [
        {
          "attributes": {
            "NORMAL": 1,
            "POSITION": 0,
            "TANGENT": 2,
            "TEXCOORD_0": 3
          },
          "indices": 4,
          "material": 0,
          "mode": 4
        }
      ]
    },
    {
      "name": "chain3_low2_body_m_0",
      "primitives": [
        {
          "attributes": {
            "NORMAL": 6,
            "POSITION": 5,
            "TANGENT": 7,
            "TEXCOORD_0": 8
          },
          "indices": 9,
          "material": 1,
          "mode": 4
        }
      ]
    },
    {
      "name": "chain3_low2_cannon_m_0",
      "primitives": [
        {
          "attributes": {
            "NORMAL": 11,
            "POSITION": 10,
            "TANGENT": 12,
            "TEXCOORD_0": 13
          },
          "indices": 14,
          "material": 2,
          "mode": 4
        }
      ]
    },
    {
      "name": "chain3_low2_lambert1_0",
      "primitives": [
        {
          "attributes": {
            "NORMAL": 16,
            "POSITION": 15,
            "TANGENT": 17,
            "TEXCOORD_0": 18
          },
          "indices": 19,
          "material": 3,
          "mode": 4
        }
      ]
    }
  ],
  "nodes": [
    {
      "children": [
        1
      ],
      "matrix": [
        0.26770815233805934,
        2.0421929678198878e-19,
        -0.0009197219488892294,
        0.0,
        -0.0009197219488892294,
        5.944315092111448e-17,
        -0.26770815233805934,
        0.0,
        0.0,
        0.26770973205566406,
        5.944350168888592e-17,
        0.0,
        -0.0003212715091649443,
        3.9305991611749497e-19,
        -0.0017701844917610288,
        1.0
      ],
      "name": "Sketchfab_model"
    },
    {
      "children": [
        2
      ],
      "matrix": [
        1.0,
        0.0,
        0.0,
        0.0,
        0.0,
        0.0,
        1.0,
        0.0,
        0.0,
        -1.0,
        0.0,
        0.0,
        0.0,
        0.0,
        0.0,
        1.0
      ],
      "name": "923039697f334d35a48dd00cf1631ec8.fbx"
    },
    {
      "children": [
        3
      ],
      "name": "RootNode"
    },
    {
      "children": [
        4,
        5,
        6,
        7
      ],
      "name": "chain3_low2"
    },
    {
      "mesh": 0,
      "name": "chain3_low2_knobs_m_0"
    },
    {
      "mesh": 1,
      "name": "chain3_low2_body_m_0"
    },
    {
      "mesh": 2,
      "name": "chain3_low2_cannon_m_0"
    },
    {
      "mesh": 3,
      "name": "chain3_low2_lambert1_0"
    }
  ],
  "samplers": [
    {
      "magFilter": 9729,
      "minFilter": 9987,
      "wrapS": 10497,
      "wrapT": 10497
    }
  ],
  "scene": 0,
  "scenes": [
    {
      "name": "Sketchfab_Scene",
      "nodes": [
        0
      ]
    }
  ],
  "textures": [
    {
      "sampler": 0,
      "source": 0
    },
    {
      "sampler": 0,
      "source": 1
    },
    {
      "sampler": 0,
      "source": 2
    },
    {
      "sampler": 0,
      "source": 3
    },
    {
      "sampler": 0,
      "source": 4
    },
    {
      "sampler": 0,
      "source": 5
    },
    {
      "sampler": 0,
      "source": 6
    },
    {
      "sampler": 0,
      "source": 7
    },
    {
      "sampler": 0,
      "source": 8
    },
    {
      "sampler": 0,
      "source": 9
    },
    {
      "sampler": 0,
      "source": 10
    },
    {
      "sampler": 0,
      "source": 11
    }
  ]
}
