{
  "accessors": [
    {
      "bufferView": 0,
      "componentType": 5125,
      "count": 1584,
      "type": "SCALAR"
    },
    {
      "bufferView": 1,
      "componentType": 5126,
      "count": 838,
      "max": [
        0.5,
        24.6350154876709,
        17.2269439697266
      ],
      "min": [
        -30.6953182220459,
        -24.6110782623291,
        -24.0000019073486
      ],
      "type": "VEC3"
    },
    {
      "bufferView": 2,
      "componentType": 5126,
      "count": 838,
      "type": "VEC3"
    },
    {
      "bufferView": 3,
      "componentType": 5126,
      "count": 838,
      "type": "VEC4"
    },
    {
      "bufferView": 4,
      "componentType": 5126,
      "count": 838,
      "type": "VEC2"
    }
  ],
  "asset": {
    "generator": "Adobe Substance 3D Painter 10.1.0",
    "version": "2.0"
  },
  "bufferViews": [
    {
      "buffer": 0,
      "byteLength": 6336,
      "target": 34963
    },
    {
      "buffer": 0,
      "byteLength": 10056,
      "byteOffset": 6336,
      "target": 34962
    },
    {
      "buffer": 0,
      "byteLength": 10056,
      "byteOffset": 16392,
      "target": 34962
    },
    {
      "buffer": 0,
      "byteLength": 13408,
      "byteOffset": 26448,
      "target": 34962
    },
    {
      "buffer": 0,
      "byteLength": 6704,
      "byteOffset": 39856,
      "target": 34962
    }
  ],
  "buffers": [
    {
      "byteLength": 46560,
      "uri": "tralada.bin"
    }
  ],
  "images": [
    {
      "uri": "tralada_baseColor.png"
    },
    {
      "uri": "tralada_occlusionRoughnessMetallic.png"
    },
    {
      "uri": "tralada_normal.png"
    }
  ],
  "materials": [
    {
      "alphaMode": "OPAQUE",
      "name": "tralada",
      "normalTexture": {
        "index": 2
      },
      "occlusionTexture": {
        "index": 1
      },
      "pbrMetallicRoughness": {
        "baseColorTexture": {
          "index": 0
        },
        "metallicRoughnessTexture": {
          "index": 1
        }
      }
    }
  ],
  "meshes": [
    {
      "name": "tralada",
      "primitives": [
        {
          "attributes": {
            "NORMAL": 2,
            "POSITION": 1,
            "TANGENT": 3,
            "TEXCOORD_0": 4
          },
          "indices": 0,
          "material": 0,
          "mode": 4
        }
      ]
    }
  ],
  "nodes": [
    {
      "children": [
        1
      ],
      "name": "RootNode"
    },
    {
      "children": [
        2
      ],
      "name": "tralada",
      "rotation": [
        -0.5,
        0.5,
        -0.5,
        0.5
      ]
    },
    {
      "mesh": 0,
      "name": "tralada"
    }
  ],
  "samplers": [
    {
      "magFilter": 9729,
      "minFilter": 9985,
      "wrapS": 10497,
      "wrapT": 10497
    }
  ],
  "scene": 0,
  "scenes": [
    {
      "name": "Scene",
      "nodes": [
        0
      ]
    }
  ],
  "textures": [
    {
      "sampler": 0,
      "source": 0
    },
    {
      "sampler": 0,
      "source": 1
    },
    {
      "sampler": 0,
      "source": 2
    }
  ]
}